{
	"meshes":[{
		"name":"Sweep",
		"primitives":[{
			"attributes":{
				"POSITION":1,
				"NORMAL":2,
				"TEXCOORD_0":3
			},
			"indices":0,
			"material":0
		}]
	}],
	"asset":{
		"version":"2.0",
		"generator":"Created using the official Cinema 4D glTF Exporter 1.000x284978"
	},
	"scenes":[{
		"nodes":[0,
		3]
	}],
	"nodes":[{
		"name":"Subdivision Surface",
		"children":[1]
	},
	{
		"name":"Null",
		"translation":[0.0,
		0.0,
		0.0],
		"rotation":[0.0,
		0.0,
		0.0,
		-1.0],
		"scale":[1.0,
		2.0299999713897707,
		1.0],
		"children":[2]
	},
	{
		"name":"Sweep",
		"translation":[0.0,
		0.0,
		0.0],
		"rotation":[0.0,
		0.0,
		0.0,
		-1.0],
		"scale":[1.0,
		1.3200000524520875,
		1.0],
		"mesh":0
	},
	{
		"name":"Camera",
		"translation":[779.703369140625,
		299.53668212890627,
		3239.640625],
		"rotation":[-0.03556394204497337,
		-0.1092209592461586,
		0.24820788204669953,
		-0.9618725776672363],
		"scale":[1.0,
		1.0,
		1.0],
		"camera":0
	}],
	"cameras":[{
		"type":"perspective",
		"perspective":{
			"znear":0.009999999776482582,
			"zfar":10000000000.0,
			"aspectRatio":1.7777777910232545,
			"yfov":0.5483348965644836
		}
	}],
	"bufferViews":[{
		"buffer":0,
		"byteOffset":0,
		"byteLength":391800,
		"target":34963
	},
	{
		"buffer":0,
		"byteOffset":391800,
		"byteLength":1078304,
		"target":34962,
		"byteStride":32
	}],
	"accessors":[{
		"bufferView":0,
		"type":"SCALAR",
		"componentType":5123,
		"count":195900,
		"byteOffset":0,
		"min":[0],
		"max":[33696]
	},
	{
		"bufferView":1,
		"type":"VEC3",
		"componentType":5126,
		"count":33697,
		"byteOffset":0,
		"min":[-395.00006103515627,
		-44.98801803588867,
		-394.9573974609375],
		"max":[395.0026550292969,
		565.8172607421875,
		394.9566955566406]
	},
	{
		"bufferView":1,
		"type":"VEC3",
		"componentType":5126,
		"count":33697,
		"byteOffset":12,
		"min":[-0.999956488609314,
		-0.9998739957809448,
		-0.998687744140625],
		"max":[0.9999565482139587,
		0.999881386756897,
		0.9998255372047424]
	},
	{
		"bufferView":1,
		"type":"VEC2",
		"componentType":5126,
		"count":33697,
		"byteOffset":24,
		"min":[0.0,
		0.0],
		"max":[1.0,
		1.0]
	}],
	"buffers":[{
		"uri":"data:application/octet-stream;base64,",
		"byteLength":1470104
	}],
	"materials":[{
		"pbrMetallicRoughness":{
			"baseColorFactor":[0.8,
			0.8,
			0.8,
			1.0],
			"metallicFactor":0.0,
			"roughnessFactor":1.0
		},
		"emissiveFactor":[0.0,
		0.0,
		0.0],
		"alphaMode":"OPAQUE",
		"doubleSided":false,
		"name":"Mat"
	}]
}